<svg xmlns="http://www.w3.org/2000/svg" height="24" viewBox="0 -960 960 960" width="24"><path d="M820-28 606-240H240L80-80v-700h100l260 260H328L28-820l56-56L876-84l-56 56Zm8-218L554-520h166v-80H474l-40-40h286v-80H400v46L194-880h606q33 0 56.5 23.5T880-800v480q0 26-14.5 45.5T828-246ZM308.5-411.5Q320-423 320-440t-11.5-28.5Q297-480 280-480t-28.5 11.5Q240-457 240-440t11.5 28.5Q263-400 280-400t28.5-11.5Zm0-120Q320-543 320-560t-11.5-28.5Q297-600 280-600t-28.5 11.5Q240-577 240-560t11.5 28.5Q263-520 280-520t28.5-11.5Z"/></svg>